<?xml version="1.0" encoding="UTF-8" standalone="no"?>
<svg
   xmlns:dc="http://purl.org/dc/elements/1.1/"
   xmlns:cc="http://creativecommons.org/ns#"
   xmlns:rdf="http://www.w3.org/1999/02/22-rdf-syntax-ns#"
   xmlns:svg="http://www.w3.org/2000/svg"
   xmlns="http://www.w3.org/2000/svg"
   xmlns:sodipodi="http://sodipodi.sourceforge.net/DTD/sodipodi-0.dtd"
   xmlns:inkscape="http://www.inkscape.org/namespaces/inkscape"
   viewBox="0 0 250 250"
   version="1.1"
   id="svg4648"
   sodipodi:docname="logolivier_1.svg"
   width="250"
   height="250"
   inkscape:version="0.92.4 (5da689c313, 2019-01-14)">
  <metadata
     id="metadata4652">
    <rdf:RDF>
      <cc:Work
         rdf:about="">
        <dc:format>image/svg+xml</dc:format>
        <dc:type
           rdf:resource="http://purl.org/dc/dcmitype/StillImage" />
        <dc:title></dc:title>
      </cc:Work>
    </rdf:RDF>
  </metadata>
  <sodipodi:namedview
     pagecolor="#ffffff"
     bordercolor="#666666"
     borderopacity="1"
     objecttolerance="10"
     gridtolerance="10"
     guidetolerance="10"
     inkscape:pageopacity="0"
     inkscape:pageshadow="2"
     inkscape:window-width="1920"
     inkscape:window-height="1027"
     id="namedview4650"
     showgrid="false"
     units="px"
     width="47px"
     inkscape:zoom="0.98087639"
     inkscape:cx="108.82988"
     inkscape:cy="143.79526"
     inkscape:window-x="-8"
     inkscape:window-y="-8"
     inkscape:window-maximized="1"
     inkscape:current-layer="svg4648" />
  <defs
     id="defs4588">
    <style
       id="style4586">.cls-1{fill:#08afaa;}.cls-2{fill:#fff;}</style>
  </defs>
  <g
     id="Calque_2"
     data-name="Calque 2"
     inkscape:label="Calque_2"
     transform="translate(-236.52318,1.3005035)">
    <g
       id="Calque_1-2"
       data-name="Calque 1"
       inkscape:label="Calque_1-2">
      <path
         d="m 352.24,247.68 c -18.54,0 -37.67,-8.69 -53.75,-24.73 -21.92,-21.85 -33.84,-53 -29.66,-77.42 4.57,-26.77 11.32,-46 21.25,-60.39 13.67,-19.88 33.13,-29.7 57.8,-29.18 25.37,0.53 63.68,12.74 87.84,38.29 15.45,16.34 23.23,36.22 22.48,57.51 -1.84,52.32 -34.15,84.31 -96,95.07 a 57.77,57.77 0 0 1 -9.96,0.85 z M 346.05,72.94 c -32.89,0 -51.57,23.35 -60.47,75.45 -3.23,19 7,44.68 24.91,62.52 15,15 32.78,22 48.76,19.17 53.61,-9.32 80.42,-35.14 82,-78.92 0.59,-16.87 -5.41,-32.09 -17.84,-45.24 -20.8,-22 -53.9,-32.51 -75.84,-33 z"
         id="path4590"
         inkscape:connector-curvature="0" />
      <path
         class="cls-1"
         d="m 392.36,54.83 a 8.47,8.47 0 0 1 -7.48,-4.46 L 370.2,23.26 350.66,45.44 A 8.5,8.5 0 0 1 337.91,34.21 L 365.5,2.88 a 8.49,8.49 0 0 1 13.85,1.57 l 20.48,37.83 a 8.51,8.51 0 0 1 -7.47,12.55 z"
         id="path4592"
         inkscape:connector-curvature="0"
         style="fill:#08afaa" />
      <path
         class="cls-1"
         d="m 360.44,202 c -0.25,0 -0.51,0 -0.76,0 a 8.49,8.49 0 0 1 -6.62,-4.25 l -21.35,-37.33 a 8.5013411,8.5013411 0 0 1 14.76,-8.44 l 15.3,26.76 19,-22.63 a 8.5,8.5 0 1 1 13,10.93 l -26.85,32 a 8.53,8.53 0 0 1 -6.48,2.96 z"
         id="path4594"
         inkscape:connector-curvature="0"
         style="fill:#08afaa" />
      <line
         class="cls-2"
         x1="292.70001"
         y1="57.459999"
         x2="437.16"
         y2="75.440002"
         id="line4596"
         style="fill:#ffffff" />
      <path
         class="cls-1"
         d="m 437.17,83.94 a 9.42,9.42 0 0 1 -1.06,-0.06 l -144.45,-18 A 8.5050632,8.5050632 0 1 1 293.76,49 l 144.45,18 a 8.5,8.5 0 0 1 -1,16.93 z"
         id="path4598"
         inkscape:connector-curvature="0"
         style="fill:#08afaa" />
      <ellipse
         cx="320.13"
         cy="139.96001"
         rx="20.18"
         ry="10.57"
         transform="matrix(0.29,-0.96,0.96,0.29,92.22,404.78)"
         id="ellipse4600" />
      <ellipse
         cx="407.54999"
         cy="146.8"
         rx="10.57"
         ry="20.18"
         transform="rotate(-11.9,407.63071,146.79817)"
         id="ellipse4602" />
      <path
         class="cls-2"
         d="M 84.24,247.68 C 65.7,247.68 46.57,239 30.49,223 8.57,201.1 -3.35,170 0.83,145.53 5.4,118.76 12.15,99.53 22.08,85.14 35.75,65.26 55.21,55.44 79.88,56 c 25.37,0.53 63.68,12.74 87.84,38.29 15.45,16.34 23.23,36.22 22.48,57.51 -1.84,52.32 -34.15,84.31 -96,95.07 a 57.77,57.77 0 0 1 -9.96,0.81 z M 78.05,72.94 c -32.89,0 -51.57,23.35 -60.47,75.45 -3.23,19 7,44.68 24.91,62.52 15,15 32.78,22 48.76,19.17 53.61,-9.32 80.42,-35.14 82,-78.92 0.59,-16.87 -5.41,-32.09 -17.84,-45.24 -20.8,-22 -53.9,-32.51 -75.84,-33 z"
         id="path4604"
         inkscape:connector-curvature="0"
         style="fill:#ffffff" />
      <path
         class="cls-1"
         d="m 124.36,54.83 a 8.47,8.47 0 0 1 -7.48,-4.46 L 102.2,23.26 82.66,45.44 A 8.5,8.5 0 0 1 69.91,34.21 L 97.5,2.88 a 8.49,8.49 0 0 1 13.85,1.57 l 20.48,37.83 a 8.51,8.51 0 0 1 -7.47,12.55 z"
         id="path4606"
         inkscape:connector-curvature="0"
         style="fill:#08afaa" />
      <path
         class="cls-1"
         d="m 92.44,202 c -0.25,0 -0.51,0 -0.76,0 a 8.49,8.49 0 0 1 -6.62,-4.25 L 63.71,160.33 a 8.5013411,8.5013411 0 1 1 14.76,-8.44 l 15.3,26.76 19,-22.63 a 8.5,8.5 0 0 1 13,10.93 L 99,198.91 A 8.53,8.53 0 0 1 92.44,202 Z"
         id="path4608"
         inkscape:connector-curvature="0"
         style="fill:#08afaa" />
      <line
         class="cls-2"
         x1="24.700001"
         y1="57.459999"
         x2="169.16"
         y2="75.440002"
         id="line4610"
         style="fill:#ffffff" />
      <path
         class="cls-1"
         d="m 169.17,83.94 a 9.42,9.42 0 0 1 -1.06,-0.06 L 23.66,65.88 A 8.5050632,8.5050632 0 1 1 25.76,49 l 144.45,18 a 8.5,8.5 0 0 1 -1,16.93 z"
         id="path4612"
         inkscape:connector-curvature="0"
         style="fill:#08afaa" />
      <ellipse
         class="cls-2"
         cx="52.130001"
         cy="139.96001"
         rx="20.18"
         ry="10.57"
         transform="matrix(0.29,-0.96,0.96,0.29,-96.97,148.63)"
         id="ellipse4614"
         style="fill:#ffffff" />
      <ellipse
         class="cls-2"
         cx="139.55"
         cy="146.8"
         rx="10.57"
         ry="20.18"
         transform="rotate(-11.9,139.59059,146.84447)"
         id="ellipse4616"
         style="fill:#ffffff" />
      <path
         class="cls-2"
         d="m 638.24,247.68 c -18.54,0 -37.67,-8.69 -53.75,-24.73 -21.92,-21.85 -33.84,-53 -29.66,-77.42 4.57,-26.77 11.32,-46 21.25,-60.39 13.67,-19.88 33.13,-29.7 57.8,-29.18 25.37,0.53 63.68,12.74 87.84,38.29 15.45,16.34 23.23,36.22 22.48,57.51 -1.84,52.32 -34.15,84.31 -96,95.07 a 57.77,57.77 0 0 1 -9.96,0.85 z M 632.05,72.94 c -32.89,0 -51.57,23.35 -60.47,75.45 -3.23,19 7,44.68 24.91,62.52 15,15 32.78,22 48.76,19.17 53.61,-9.32 80.42,-35.14 82,-78.92 0.59,-16.87 -5.41,-32.09 -17.84,-45.24 -20.8,-22 -53.9,-32.51 -75.84,-33 z"
         id="path4618"
         inkscape:connector-curvature="0"
         style="fill:#ffffff" />
      <path
         class="cls-2"
         d="m 678.36,54.83 a 8.47,8.47 0 0 1 -7.48,-4.46 L 656.2,23.26 636.66,45.44 A 8.5,8.5 0 0 1 623.91,34.21 L 651.5,2.88 a 8.49,8.49 0 0 1 13.85,1.57 l 20.48,37.83 a 8.51,8.51 0 0 1 -7.47,12.55 z"
         id="path4620"
         inkscape:connector-curvature="0"
         style="fill:#ffffff" />
      <path
         class="cls-2"
         d="m 646.44,202 c -0.25,0 -0.51,0 -0.76,0 a 8.49,8.49 0 0 1 -6.62,-4.25 l -21.35,-37.33 a 8.5013411,8.5013411 0 1 1 14.76,-8.44 l 15.3,26.76 19,-22.63 a 8.5,8.5 0 0 1 13,10.93 l -26.85,32 a 8.53,8.53 0 0 1 -6.48,2.96 z"
         id="path4622"
         inkscape:connector-curvature="0"
         style="fill:#ffffff" />
      <line
         class="cls-2"
         x1="578.70001"
         y1="57.459999"
         x2="723.15997"
         y2="75.440002"
         id="line4624"
         style="fill:#ffffff" />
      <path
         class="cls-2"
         d="m 723.17,83.94 a 9.42,9.42 0 0 1 -1.06,-0.06 l -144.45,-18 A 8.5050632,8.5050632 0 1 1 579.76,49 l 144.45,18 a 8.5,8.5 0 0 1 -1,16.93 z"
         id="path4626"
         inkscape:connector-curvature="0"
         style="fill:#ffffff" />
      <ellipse
         class="cls-2"
         cx="606.13"
         cy="139.96001"
         rx="20.18"
         ry="10.57"
         transform="matrix(0.29,-0.96,0.96,0.29,294.12,678.13)"
         id="ellipse4628"
         style="fill:#ffffff" />
      <ellipse
         class="cls-2"
         cx="693.54999"
         cy="146.8"
         rx="10.57"
         ry="20.18"
         transform="rotate(-11.9,693.65437,146.83182)"
         id="ellipse4630"
         style="fill:#ffffff" />
      <path
         d="m 903.24,247.68 c -18.54,0 -37.67,-8.69 -53.75,-24.73 -21.92,-21.85 -33.84,-53 -29.66,-77.42 4.57,-26.77 11.32,-46 21.25,-60.39 13.67,-19.88 33.13,-29.7 57.8,-29.18 25.37,0.53 63.68,12.74 87.84,38.29 15.45,16.34 23.23,36.22 22.48,57.51 -1.84,52.32 -34.15,84.31 -96,95.07 a 57.77,57.77 0 0 1 -9.96,0.85 z M 897.05,72.94 c -32.89,0 -51.57,23.35 -60.47,75.45 -3.23,19 7,44.68 24.91,62.52 15,15 32.78,22 48.76,19.17 53.61,-9.32 80.42,-35.14 82,-78.92 0.59,-16.87 -5.41,-32.09 -17.84,-45.24 -20.8,-22 -53.9,-32.51 -75.84,-33 z"
         id="path4632"
         inkscape:connector-curvature="0" />
      <path
         d="m 943.36,54.83 a 8.47,8.47 0 0 1 -7.48,-4.46 L 921.2,23.26 901.66,45.44 A 8.5,8.5 0 0 1 888.91,34.21 L 916.5,2.88 a 8.49,8.49 0 0 1 13.85,1.57 l 20.48,37.83 a 8.51,8.51 0 0 1 -7.47,12.55 z"
         id="path4634"
         inkscape:connector-curvature="0" />
      <path
         d="m 911.44,202 c -0.25,0 -0.51,0 -0.76,0 a 8.49,8.49 0 0 1 -6.62,-4.25 l -21.35,-37.33 a 8.5013411,8.5013411 0 1 1 14.76,-8.44 l 15.3,26.76 19,-22.63 a 8.5,8.5 0 0 1 13,10.93 l -26.85,32 a 8.53,8.53 0 0 1 -6.48,2.96 z"
         id="path4636"
         inkscape:connector-curvature="0" />
      <line
         x1="843.70001"
         y1="57.459999"
         x2="988.15997"
         y2="75.440002"
         id="line4638" />
      <path
         d="m 988.17,83.94 a 9.42,9.42 0 0 1 -1.06,-0.06 l -144.45,-18 A 8.5050632,8.5050632 0 1 1 844.76,49 l 144.45,18 a 8.5,8.5 0 0 1 -1,16.93 z"
         id="path4640"
         inkscape:connector-curvature="0" />
      <ellipse
         cx="871.13"
         cy="139.96001"
         rx="20.18"
         ry="10.57"
         transform="matrix(0.29,-0.96,0.96,0.29,481.19,931.42)"
         id="ellipse4642" />
      <ellipse
         cx="958.54999"
         cy="146.8"
         rx="10.57"
         ry="20.18"
         transform="rotate(-11.9,958.73305,146.81635)"
         id="ellipse4644" />
    </g>
  </g>
</svg>
